<svg xmlns="http://www.w3.org/2000/svg" viewBox="0 0 64 64">
  <defs>
    <linearGradient id="bg" x1="0" y1="0" x2="1" y2="1">
      <stop offset="0%" stop-color="#0c1830"/>
      <stop offset="100%" stop-color="#356ef1"/>
    </linearGradient>
  </defs>
  <rect width="64" height="64" rx="16" fill="url(#bg)"/>
  <path d="M14 46V18h8v21h13v7H14Z" fill="#f4f6ff"/>
  <path d="M50 34H40v-7h18v13c-3 4.5-8.4 7.2-14.8 7.2C32 47.2 25 40.2 25 31.5S32 15.8 43.2 15.8c5.5 0 10.1 1.9 13.3 5.4l-5.6 5.2c-1.9-2-4.4-3.1-7.4-3.1-6 0-10.4 3.6-10.4 8.2 0 4.7 4.4 8.3 10.5 8.3 2.7 0 4.9-.6 6.4-1.8V34Z" fill="#ef3557"/>
</svg>
